<svg id="Layer_2" data-name="Layer 2" xmlns="http://www.w3.org/2000/svg" viewBox="0 0 544 288"><path d="M0,128V416H544V128ZM96,384H32V320H64v32H96Zm0-192H64v32H32V160H96ZM252,356.37H148a12.5,12.5,0,0,1-10.08-19.9l89.43-121.7H148a12.5,12.5,0,0,1,0-25H252a12.5,12.5,0,0,1,10.08,19.9l-89.43,121.7H252a12.5,12.5,0,0,1,0,25ZM404.68,338.2a12.5,12.5,0,1,1-22.28,11.34l-31.87-62.66-44,64.07a12.5,12.5,0,0,1-22.8-7.08V202.27a12.5,12.5,0,0,1,25,0V303.63l74.56-108.44a12.5,12.5,0,0,1,20.6,14.16l-37.19,54.08ZM512,384H448V352h32V320h32Zm0-160H480V192H448V160h64Z" transform="translate(0 -128)"/></svg>