<?xml version="1.0" encoding="utf-8"?>
<!-- Generator: Adobe Illustrator 24.2.0, SVG Export Plug-In . SVG Version: 6.00 Build 0)  -->
<svg version="1.1" baseProfile="basic" id="Layer_1"
	 xmlns="http://www.w3.org/2000/svg" xmlns:xlink="http://www.w3.org/1999/xlink" x="0px" y="0px" viewBox="0 0 512 512"
	 xml:space="preserve">
<style type="text/css">
	.st0{fill:#FF00FF;}
</style>
<path d="M497.83,362.57c-1.09-7.45-13.8-10.17-17.44,1.27c-3.63,11.44-28.88,32.51-41.41,39.41c-12.53,6.9-28.88,11.26-55.58,13.26
	c-3.11,0.23-6.96,0.44-11.35,0.62c-4.33-32.12-12.67-94.75-14.26-113.32c-2.18-25.34-12.8-87.18-14.17-100.26s-3-34.05-19.89-32.42
	c-16.82,1.63-39.34,9.19-67.88,9.26c-28.55-0.07-51.07-7.63-67.88-9.26c-16.89-1.63-18.53,19.34-19.89,32.42
	s-11.99,74.92-14.17,100.26c-1.6,18.57-9.93,81.2-14.26,113.32c-4.39-0.18-8.23-0.39-11.35-0.62c-26.7-2-43.05-6.36-55.58-13.26
	c-12.53-6.9-37.78-27.97-41.41-39.41c-3.63-11.44-16.35-8.72-17.44-1.27c-1.09,7.45-0.91,11.99,8.35,26.52
	c9.26,14.53,14.53,21.43,37.05,45.04c22.52,23.61,69.47,52.62,96.62,59.57c21.69,5.55,67.2,4.48,99.94,3.91
	c32.74,0.57,78.24,1.64,99.94-3.91c27.15-6.95,74.1-35.96,96.62-59.57c22.52-23.61,27.79-30.51,37.05-45.04
	C498.74,374.56,498.92,370.02,497.83,362.57z"/>
<path class="st0" d="M373.37,417.1c-0.29,0.01-0.58,0.03-0.88,0.04c-0.99-7.32-2.18-16.22-3.46-25.82
	c-19.09,9-99.53,14.89-112.96,14.93c-13.43-0.05-93.87-5.93-112.96-14.93c-1.28,9.6-2.47,18.5-3.46,25.82
	c-0.3-0.01-0.59-0.03-0.88-0.04c2.5,1.38,6.06,3.1,10.78,4.87c10.64,3.97,63.3,10.89,105.77,10.99c0.2,0,0.38,0,0.58,0
	c0.05,0,0.11,0,0.16,0s0.11,0,0.16,0c0.2,0,0.39,0,0.58,0c42.47-0.1,95.13-7.02,105.77-10.99
	C367.31,420.2,370.86,418.48,373.37,417.1z"/>
</svg>
