<?xml version="1.0" encoding="utf-8"?>
<!-- Generator: Adobe Illustrator 24.2.0, SVG Export Plug-In . SVG Version: 6.00 Build 0)  -->
<svg version="1.1" baseProfile="basic" id="Layer_1"
	 xmlns="http://www.w3.org/2000/svg" xmlns:xlink="http://www.w3.org/1999/xlink" x="0px" y="0px" viewBox="0 0 512 512"
	 xml:space="preserve">
<style type="text/css">
	.st0{fill:none;stroke:#000000;stroke-width:0.75;stroke-linecap:round;stroke-miterlimit:10;}
	.st1{stroke:#000000;stroke-width:0.75;stroke-linecap:round;stroke-miterlimit:10;}
</style>
<path class="st0" d="M388.35,185.37c-6.63-24.88-45.68-30.88-61.48-34.69c-15.62-3.77-45.44-5.94-70.91-5.99l0,0
	c-0.15,0-0.3,0-0.44,0c-0.15,0-0.3,0-0.44,0l0,0c-25.47,0.05-55.29,2.22-70.91,5.99c-15.8,3.81-54.85,9.81-61.48,34.69L97.88,450.73
	c0,0,0.45,8.35,17.75,21.98c17.3,13.62,61.71,26.56,87.18,30.65c25.05,4.02,34.37,4.74,52.22,4.77c0.01,0,0.02,0,0.03,0
	c0.15,0,0.3,0,0.44,0c0.15,0,0.29,0,0.44,0c0.01,0,0.02,0,0.03,0c17.86-0.02,27.18-0.75,52.22-4.77
	c25.47-4.09,69.88-17.03,87.18-30.65c17.3-13.62,17.75-21.98,17.75-21.98L388.35,185.37z"/>
<path class="st1" d="M264.74,171.69c-0.48-0.9-11.93-22.23-29.27-43.41c-24.86-30.35-48.94-44.82-71.58-43
	c-24.54,1.97-43.07,9.49-56.66,22.98c-13.08,12.98-21.93,31.52-27.86,58.36c-3.97,17.98-7.84,38.05-11.58,57.46
	c-5.22,27.1-10.56,54.85-15.66,73.61c-13.39,2.16-29.11,12.07-37.34,28.6c-11.78,23.68-1.39,45.59,4.41,68.16l0.14,0.57l0.54-0.23
	c21.5-8.99,45.24-13.92,57.02-37.6c9.49-19.08,5.92-40.81-2.96-52.08c5.4-19.36,10.64-46.57,16.44-76.69
	c3.71-19.26,7.54-39.18,11.45-56.85c9.68-43.77,26.4-60.35,63.91-63.37c14.2-1.13,32.57,11.07,51.73,34.38
	c15.97,19.43,26.88,39.72,26.99,39.92c2.99,5.6,9.96,7.72,15.56,4.73C265.61,184.26,267.73,177.29,264.74,171.69z"/>
</svg>
