<?xml version="1.0" encoding="utf-8"?>
<!-- Generator: Adobe Illustrator 24.2.0, SVG Export Plug-In . SVG Version: 6.00 Build 0)  -->
<svg version="1.1" baseProfile="basic" id="Layer_1"
	 xmlns="http://www.w3.org/2000/svg" xmlns:xlink="http://www.w3.org/1999/xlink" x="0px" y="0px" viewBox="0 0 512 512"
	 xml:space="preserve">
<path d="M509.8,357.73c-25.01-40.97-57.87-74.99-95.03-98.35c-38.82-24.41-82.6-37.31-126.63-37.31
	c-63.13,0-123.8,26.05-172.63,73.73c-27.74-32.76-59.58-57.61-92.9-72.36c-6.17-2.73-13.4-1.3-18.05,3.58s-5.75,12.17-2.73,18.2
	l60.43,120.84L1.82,486.91c-3.02,6.04-1.92,13.32,2.73,18.2c3.09,3.23,7.3,4.96,11.58,4.96c2.18,0,4.39-0.45,6.47-1.37
	c33.33-14.76,65.17-39.6,92.9-72.36c48.83,47.69,109.5,73.73,172.63,73.73c44.02,0,87.81-12.9,126.63-37.31
	c37.16-23.37,70.02-57.38,95.03-98.36C512.92,369.28,512.92,362.84,509.8,357.73L509.8,357.73z M416.13,382.06
	c-17.67,0-32-14.33-32-32s14.33-32,32-32s32,14.33,32,32S433.8,382.06,416.13,382.06z"/>
</svg>
