<?xml version="1.0" encoding="utf-8"?>
<!-- Generator: Adobe Illustrator 24.2.0, SVG Export Plug-In . SVG Version: 6.00 Build 0)  -->
<svg version="1.1" baseProfile="basic" id="Layer_1"
	 xmlns="http://www.w3.org/2000/svg" xmlns:xlink="http://www.w3.org/1999/xlink" x="0px" y="0px" viewBox="0 0 512 512"
	 xml:space="preserve">
<style type="text/css">
	.st0{fill:none;stroke:#FF00FF;stroke-width:2;stroke-miterlimit:10;}
</style>
<path class="st0" d="M492,267.96c-6,4-201,135-201,135l133-67c0,0,0,46,0,46s2,15-11,24c-37.43,22.63-129.6,92.01-157,101
	c-27.84-9.26-119.09-78.04-157-101c-13-9-11-24-11-24s0-46,0-46l133,67c-2.97-6.13-211.75-133.17-209-147
	c3.85-8.59,25.87-17.04,33-22c19.74-9.12,194.19-116.35,211-116c37.02,9.94,193.3,109.13,229,126
	C493.49,248.86,509.51,255.94,492,267.96z M440,466.96l14-15l14,14v-152l-28,14V466.96z"/>
</svg>
