<?xml version="1.0" encoding="utf-8"?>
<!-- Generator: Adobe Illustrator 24.2.0, SVG Export Plug-In . SVG Version: 6.00 Build 0)  -->
<svg version="1.1" baseProfile="basic" id="Layer_1"
	 xmlns="http://www.w3.org/2000/svg" xmlns:xlink="http://www.w3.org/1999/xlink" x="0px" y="0px" viewBox="0 0 512 512"
	 xml:space="preserve">
<style type="text/css">
	.st0{fill:#FF0000;}
</style>
<path d="M411.86,472.67c-16.96,11.97-60.78,35.87-155.26,36c-0.03,0-0.05,0-0.08,0c-0.11,0-0.22,0-0.33,0c-0.11,0-0.22,0-0.33,0
	c-0.03,0-0.05,0-0.08,0c-94.49-0.12-138.31-24.03-155.26-36c-17-12-9-40-9-40L255.28,71.41c0.38-1.79,0.58-2.73,0.58-2.73l0.33,0.73
	l0.33-0.73c0,0,0.2,0.94,0.58,2.73l163.76,361.27C420.86,432.67,428.86,460.67,411.86,472.67z"/>
<path class="st0" d="M256.19,163.68c-1.99,0-4.77-1.25-6.69-7.2l-6.27-19.42c-0.87-2.71-2.59-4.66-4.84-5.47
	c-2.25-0.82-4.81-0.43-7.23,1.08l-17.28,10.85c-5.3,3.33-8.23,2.49-9.75,1.22c-1.53-1.28-2.85-4.02-0.5-9.81l7.69-18.91
	c1.07-2.64,1.01-5.23-0.19-7.3c-1.2-2.07-3.41-3.42-6.23-3.82l-20.21-2.8c-6.19-0.86-7.9-3.37-8.25-5.34
	c-0.35-1.96,0.4-4.91,5.93-7.83l18.04-9.54c2.52-1.33,4.13-3.36,4.55-5.72c0.42-2.35-0.41-4.81-2.32-6.93l-13.69-15.14
	c-4.19-4.63-3.89-7.66-2.89-9.39c1-1.72,3.46-3.51,9.58-2.19l19.95,4.29c2.78,0.6,5.33,0.08,7.16-1.45s2.78-3.95,2.68-6.8
	l-0.75-20.39c-0.23-6.25,1.95-8.37,3.82-9.05c1.87-0.68,4.91-0.46,8.74,4.48l12.53,16.11c1.75,2.25,4.03,3.49,6.42,3.49
	c2.39,0,4.67-1.24,6.42-3.49l12.53-16.11c3.84-4.93,6.87-5.16,8.74-4.48c1.87,0.68,4.05,2.8,3.82,9.05l-0.75,20.39
	c-0.11,2.85,0.84,5.26,2.68,6.8s4.38,2.05,7.16,1.45l19.95-4.28c6.12-1.32,8.58,0.47,9.58,2.19c1,1.72,1.3,4.75-2.89,9.39
	l-13.69,15.14c-1.91,2.11-2.74,4.57-2.32,6.93c0.42,2.35,2.03,4.38,4.55,5.72L330,88.94c5.53,2.92,6.27,5.87,5.93,7.83
	c-0.34,1.96-2.06,4.48-8.25,5.34l-20.21,2.8c-2.82,0.39-5.04,1.75-6.23,3.82c-1.19,2.07-1.26,4.66-0.19,7.3l7.69,18.91
	c2.35,5.79,1.03,8.53-0.5,9.81c-1.53,1.28-4.45,2.11-9.75-1.22l-17.28-10.85c-2.41-1.52-4.98-1.9-7.23-1.08
	c-2.24,0.82-3.96,2.76-4.84,5.47l-6.27,19.42C260.96,162.43,258.18,163.68,256.19,163.68z"/>
</svg>
