<?xml version="1.0" encoding="utf-8"?>
<!-- Generator: Adobe Illustrator 24.2.0, SVG Export Plug-In . SVG Version: 6.00 Build 0)  -->
<svg version="1.1" baseProfile="basic" id="Layer_1"
	 xmlns="http://www.w3.org/2000/svg" xmlns:xlink="http://www.w3.org/1999/xlink" x="0px" y="0px" viewBox="0 0 512 512"
	 xml:space="preserve">
<style type="text/css">
	.st0{fill:#ED1C24;}
</style>
<path d="M360.17,134.89c-35.23-41.76-104.28-84.62-104.31-84.64l0,0l0,0l0,0l0,0c-0.03,0.02-69.09,42.87-104.31,84.64
	c-35.24,41.77-65.02,122.78-60.66,189.25s40.32,152.2,40.32,152.2c53.03,13.44,96.44,14.17,124.65,14.17l0,0c0,0,0,0,0,0s0,0,0,0
	l0,0c28.21,0,71.62-0.73,124.65-14.17c0,0,35.96-85.73,40.32-152.2S395.41,176.66,360.17,134.89z"/>
<path class="st0" d="M322.27,98.33v302.46c0,0,52.48,2.78,87.4-12.39c5.41-21.18,9.81-43.65,11.16-64.26
	c4.36-66.47-25.43-147.48-60.66-189.25C349.64,122.41,336.1,109.83,322.27,98.33z"/>
<path class="st0" d="M189.48,98.33v302.46c0,0-52.48,2.78-87.4-12.39c-5.41-21.18-9.81-43.65-11.16-64.26
	c-4.36-66.47,25.43-147.48,60.66-189.25C162.11,122.41,175.66,109.83,189.48,98.33z"/>
<path class="st0" d="M299.84,242.03h-37.13v-35.75c0-3.76-3.05-6.81-6.81-6.81c-0.01,0-0.01,0-0.02,0c-0.01,0-0.01,0-0.02,0
	c-3.76,0-6.81,3.05-6.81,6.81v35.75h-37.13c-3.76,0-6.81,3.05-6.81,6.81s3.05,6.81,6.81,6.81h37.13v89.45
	c0,3.76,3.05,6.81,6.81,6.81c0.01,0,0.01,0,0.02,0c0.01,0,0.01,0,0.02,0c3.76,0,6.81-3.05,6.81-6.81v-89.45h37.13
	c3.76,0,6.81-3.05,6.81-6.81S303.6,242.03,299.84,242.03z"/>
</svg>
