<?xml version="1.0" encoding="utf-8"?>
<!-- Generator: Adobe Illustrator 24.2.0, SVG Export Plug-In . SVG Version: 6.00 Build 0)  -->
<svg version="1.1" baseProfile="basic" id="Layer_1"
	 xmlns="http://www.w3.org/2000/svg" xmlns:xlink="http://www.w3.org/1999/xlink" x="0px" y="0px" viewBox="0 0 512 512"
	 xml:space="preserve">
<style type="text/css">
	.st0{fill:#ED1C24;}
	.st1{fill:#0000FF;}
</style>
<path class="st0" d="M444.38,420.37c-4.72,0-25.97,6.36-37.6,4.18s-46.68-31.42-52.49-50.67c0,0,12.35,12.9,40.32,6.9
	c27.97-5.99,50.31-20.16,65.02-37.05c14.71-16.89,19.07-27.43,18.89-53.58c-0.18-26.15-11.44-46.5-22.7-60.66
	c-11.26-14.17-15.26-18.71-28.88-18.71c-13.62,0-16.53,9.99-16.53,15.98c0,5.99,27.79,32.51,31.06,49.4
	c3.27,16.89-24.52,50.31-42.14,51.76c-17.62,1.45-44.13,1.27-55.03-20.16c-10.9-21.43-11.26-37.96-2.18-54.67
	c9.08-16.71,46.68-56.67,45.95-81c-0.73-24.34-3.81-49.04-16.89-70.83c-13.08-21.79-31.24-31.42-59.21-42.5
	c-27.86-11.03-35.48-8.56-56.12-8.54c-20.64-0.02-28.26-2.5-56.12,8.54c-27.97,11.08-46.13,20.71-59.21,42.5
	c-13.08,21.8-16.16,46.5-16.89,70.83c-0.73,24.34,36.87,64.3,45.95,81c9.08,16.71,8.72,33.24-2.18,54.67
	c-10.9,21.43-37.41,21.61-55.03,20.16c-17.62-1.45-45.41-34.87-42.14-51.76c3.27-16.89,31.06-43.41,31.06-49.4
	c0-5.99-2.91-15.98-16.53-15.98c-13.62,0-17.62,4.54-28.88,18.71c-11.26,14.17-22.52,34.51-22.7,60.66
	c-0.18,26.15,4.18,36.69,18.89,53.58c14.71,16.89,37.05,31.06,65.02,37.05c27.97,5.99,40.32-6.9,40.32-6.9
	c-5.81,19.25-40.87,48.49-52.49,50.67s-32.87-4.18-37.6-4.18c-4.72,0-16.89-0.73-16.89,18.71s19.62,25.97,39.59,25.97
	c19.98,0,46.5-15.62,71.56-25.79c24.21-9.82,89.82-57.94,94.26-61.21c4.44,3.27,70.05,51.39,94.26,61.21
	c25.06,10.17,51.58,25.79,71.56,25.79c19.98,0,39.59-6.54,39.59-25.97S449.11,420.37,444.38,420.37z"/>
<path class="st1" d="M212.08,228.16c-14.04,0-25.43-11.38-25.43-25.43s11.38-25.43,25.43-25.43c14.04,0,25.43,11.38,25.43,25.43
	S226.13,228.16,212.08,228.16z M331.02,166.3c0-12-9.73-21.72-21.72-21.72c-12,0-21.72,9.73-21.72,21.72
	c0,12,9.73,21.72,21.72,21.72C321.29,188.03,331.02,178.3,331.02,166.3z"/>
</svg>
