<?xml version="1.0" encoding="utf-8"?>
<!-- Generator: Adobe Illustrator 24.2.0, SVG Export Plug-In . SVG Version: 6.00 Build 0)  -->
<svg version="1.1" baseProfile="basic" id="Layer_1"
	 xmlns="http://www.w3.org/2000/svg" xmlns:xlink="http://www.w3.org/1999/xlink" x="0px" y="0px" viewBox="0 0 512 512"
	 xml:space="preserve">
<style type="text/css">
	.st0{fill:#ED1C24;}
</style>
<path d="M442.86,373.88c-8,0-37,13-51,13s-17,0-17,0s0-42,1-61s12-86,16-114s11-45,9-53s-38-15-57-19s-69-5-88-5s-69,1-88,5
	s-55,11-57,19s5,25,9,53s15,95,16,114s1,61,1,61s-3,0-17,0s-43-13-51-13s-25,2-25,26s39,53,78,76s107,30,134,30s95-7,134-30
	s78-52,78-76S450.86,373.88,442.86,373.88z"/>
<path class="st0" d="M322.86,380.88c-20.04,2.73-51.69,5.46-67,5.93c-15.31-0.46-46.96-3.2-67-5.93c-22-3-52-17.99-52-17.99v40.99
	c20,9,40,15,59,18s45,5,60,5c15,0,41-2,60-5s39-9,59-18v-40.99C374.86,362.89,344.86,377.88,322.86,380.88z"/>
</svg>
